<?xml version="1.0" encoding="utf-8"?>
<!-- Generator: Adobe Illustrator 19.1.0, SVG Export Plug-In . SVG Version: 6.00 Build 0)  -->
<svg version="1.1" xmlns="http://www.w3.org/2000/svg" xmlns:xlink="http://www.w3.org/1999/xlink" x="0px" y="0px"
	 viewBox="0 0 350 350" style="enable-background:new 0 0 350 350;" xml:space="preserve">
<style type="text/css">
	.st0{display:none;}
	.st1{display:inline;}
	.st2{fill:#E8E8E8;}
	.st3{fill:#FFFFFF;}
	.st4{fill:#D3D3D3;}
	.st5{fill:#E2E2E2;}
	.st6{fill:#B7B7B7;}
	.st7{fill:#2BACE2;}
	.st8{fill:#A15455;}
	.st9{fill:#712D31;}
	.st10{fill:#8E4041;}
	.st11{fill:#FCE99F;}
	.st12{fill:#CBE4BA;}
	.st13{fill:#C6B9B9;}
	.st14{fill:#F9EDED;}
	.st15{fill:#AFDAF4;}
	.st16{fill:#4579BD;}
	.st17{fill:#EE2A28;}
	.st18{fill:#F2F0F1;}
	.st19{fill:#FFFFFF;stroke:#8C8C8C;stroke-miterlimit:10;}
	.st20{fill:none;stroke:#FFFFFF;stroke-width:2;stroke-miterlimit:10;}
	.st21{display:inline;fill:#D3D3D3;}
	.st22{display:inline;fill:#FCE99F;}
	.st23{display:inline;fill:#C6B9B9;}
	.st24{fill:#F5D6BB;}
	.st25{fill:#BB9F87;}
	.st26{fill:#E1BFA3;}
	.st27{fill:#6B6C6C;}
	.st28{fill:#4E4E4E;}
	.st29{fill:#676767;}
	.st30{fill:#494949;}
	.st31{fill:#616262;}
	.st32{fill:#DD962D;}
	.st33{fill:#E6A755;}
	.st34{fill:none;stroke:#EDB259;stroke-miterlimit:10;}
	.st35{fill:none;stroke:#EDB259;stroke-width:0.5;stroke-miterlimit:10;}
	.st36{fill:#EAA636;}
	.st37{fill:#09314E;}
	.st38{fill:#EDB259;}
	.st39{fill:#144D6E;}
	.st40{fill:#EABB7C;}
	.st41{opacity:0.35;fill:#0F1231;}
</style>
<g id="Layer_1" class="st0">
	<g class="st1">
		<polygon class="st2" points="179.1,286.5 32.5,201.9 179.1,117.3 325.7,201.9 		"/>
		<g>
			<polygon class="st3" points="241.4,211.4 297.1,179.2 294.9,178 239.3,210.1 211.5,194.1 267.2,162 265,160.7 209.3,192.8 
				181.6,176.8 237.3,144.7 235.1,143.4 179.4,175.6 151.7,159.6 207.4,127.4 205.2,126.2 149.5,158.3 123.4,143.2 121.2,144.5 
				267.8,229.1 270,227.9 			"/>
			<polygon class="st3" points="85.8,164.9 124.4,187.2 71,218 73.2,219.2 126.6,188.4 171.8,214.5 118.4,245.3 120.6,246.6 
				174,215.8 201.7,231.8 148.3,262.6 150.5,263.9 203.9,233.1 232.4,249.5 234.6,248.3 88,163.6 			"/>
		</g>
		<g>
			<polygon class="st2" points="151.7,159.6 179.4,175.6 235.1,143.4 207.4,127.4 			"/>
			<polygon class="st2" points="294.9,178 267.2,162 211.5,194.1 239.3,210.1 			"/>
			<polygon class="st2" points="265,160.7 237.3,144.7 181.6,176.8 209.3,192.8 			"/>
			<polygon class="st2" points="325.7,195.7 297.1,179.2 241.4,211.4 270,227.9 			"/>
			<path class="st2" d="M121.2,144.5l2.2-1.3l26.2,15.1l55.7-32.1l-26.2-15.1L32.5,195.7l146.6,84.6l88.7-51.2L121.2,144.5z
				 M203.9,233.1l-53.4,30.8l-2.2-1.3l53.4-30.8l-27.7-16l-53.4,30.8l-2.2-1.3l53.4-30.8l-45.2-26.1l-53.4,30.8L71,218l53.4-30.8
				l-38.6-22.3l2.2-1.3l146.6,84.6l-2.2,1.3L203.9,233.1z"/>
		</g>
		<polygon class="st4" points="210.8,188.6 190.4,176.8 233.1,152.2 253.5,164 		"/>
		<polygon class="st4" points="239.3,205.1 218.8,193.3 261.5,168.6 282,180.4 		"/>
		<polygon class="st4" points="180.5,171.2 160.1,159.4 202.8,134.7 223.2,146.5 		"/>
		<polygon class="st4" points="40.5,195.2 69.3,211.8 99.9,194.1 71.1,177.5 		"/>
		<polygon class="st4" points="147.3,256.9 129.1,246.3 171.8,221.7 190,232.2 		"/>
		<polygon class="st4" points="118.5,240.2 81,218.5 102.3,206.2 139.9,227.9 		"/>
		<polygon class="st4" points="296.5,209.5 274.6,196.8 296.2,184.4 318,197.1 		"/>
		<g>
			<polygon class="st4" points="40.5,150.3 69.3,166.9 99.9,149.2 71.1,132.6 			"/>
			<polygon class="st5" points="40.5,150.3 40.5,195.2 69.3,211.8 69.3,166.9 			"/>
			<polygon class="st6" points="99.9,149.2 69.3,166.9 69.3,211.8 99.9,194.1 			"/>
		</g>
		<g>
			<polygon class="st4" points="118.5,211.6 81,190 102.3,177.6 139.9,199.3 			"/>
			<polygon class="st5" points="81,190 81,218.5 118.5,240.2 118.5,211.6 			"/>
			<polygon class="st6" points="139.9,199.3 118.5,211.6 118.5,240.2 139.9,227.9 			"/>
		</g>
		<polygon class="st4" points="180.5,152.9 160.1,141.2 202.8,116.5 223.2,128.3 		"/>
		<g>
			<polygon class="st6" points="223.2,128.3 180.5,152.9 180.5,171.2 223.2,146.5 			"/>
			<polygon class="st5" points="160.1,141.2 160.1,159.4 180.5,171.2 180.5,152.9 			"/>
			<g>
				<polygon class="st7" points="223.2,128.3 202.8,116.5 212.3,112.3 				"/>
				<polygon class="st8" points="180.5,152.9 160.1,141.2 169.6,137 				"/>
				<polygon class="st9" points="169.6,137 212.3,112.3 223.2,128.3 180.5,152.9 				"/>
				<polygon class="st10" points="202.8,116.5 212.3,112.3 169.6,137 160.1,141.2 				"/>
			</g>
		</g>
		<polygon class="st11" points="246.1,241.7 99.5,157 112.1,149.8 258.7,234.4 		"/>
		<g>
			<polygon class="st4" points="147.3,229.4 129.1,218.9 171.8,194.2 190,204.7 			"/>
			<polygon class="st5" points="129.1,218.9 129.1,246.3 147.3,256.9 147.3,229.4 			"/>
			<polygon class="st6" points="147.3,256.9 190,232.2 190,204.7 147.3,229.4 			"/>
		</g>
		<g>
			<polygon class="st4" points="210.8,162.6 190.4,150.8 233.1,126.2 253.5,138 			"/>
			<polygon class="st5" points="190.4,150.8 190.4,176.8 210.8,188.6 210.8,162.6 			"/>
			<polygon class="st6" points="253.5,138 210.8,162.6 210.8,188.6 253.5,163.9 			"/>
		</g>
		<g>
			<polygon class="st4" points="239.3,159.4 218.8,147.6 261.5,122.9 282,134.7 			"/>
			<polygon class="st5" points="218.8,147.6 218.8,193.3 239.3,205.1 239.3,159.4 			"/>
			<polygon class="st6" points="239.3,159.4 282,134.7 282,180.4 239.3,205.1 			"/>
		</g>
		<g>
			<polygon class="st4" points="296.5,185.8 274.6,173.1 296.2,160.7 318,173.3 			"/>
			<polygon class="st5" points="274.6,173.1 274.6,196.8 296.5,209.5 296.5,185.8 			"/>
			<polygon class="st6" points="318,173.3 296.5,185.8 296.5,209.5 318,197.1 			"/>
		</g>
		<g>
			<polygon class="st3" points="241.4,211.4 297.1,179.2 294.9,178 239.3,210.1 211.5,194.1 267.2,162 265,160.7 209.3,192.8 
				181.6,176.8 237.3,144.7 235.1,143.4 179.4,175.6 151.7,159.6 207.4,127.4 205.2,126.2 149.5,158.3 123.4,143.2 121.2,144.5 
				267.8,229.1 270,227.9 			"/>
			<polygon class="st3" points="85.8,164.9 124.4,187.2 71,218 73.2,219.2 126.6,188.4 171.8,214.5 118.4,245.3 120.6,246.6 
				174,215.8 201.7,231.8 148.3,262.6 150.5,263.9 203.9,233.1 232.4,249.5 234.6,248.3 88,163.6 			"/>
		</g>
		<g>
			<polygon class="st2" points="151.7,159.6 179.4,175.6 235.1,143.4 207.4,127.4 			"/>
			<polygon class="st2" points="294.9,178 267.2,162 211.5,194.1 239.3,210.1 			"/>
			<polygon class="st2" points="265,160.7 237.3,144.7 181.6,176.8 209.3,192.8 			"/>
			<polygon class="st2" points="325.7,195.7 297.1,179.2 241.4,211.4 270,227.9 			"/>
			<path class="st2" d="M121.2,144.5l2.2-1.3l26.2,15.1l55.7-32.1l-26.2-15.1L32.5,195.7l146.6,84.6l88.7-51.2L121.2,144.5z
				 M203.9,233.1l-53.4,30.8l-2.2-1.3l53.4-30.8l-27.7-16l-53.4,30.8l-2.2-1.3l53.4-30.8l-45.2-26.1l-53.4,30.8L71,218l53.4-30.8
				l-38.6-22.3l2.2-1.3l146.6,84.6l-2.2,1.3L203.9,233.1z"/>
		</g>
		<polygon class="st4" points="210.8,188.6 190.4,176.8 233.1,152.2 253.5,164 		"/>
		<polygon class="st4" points="239.3,205.1 218.8,193.3 261.5,168.6 282,180.4 		"/>
		<polygon class="st4" points="180.5,171.2 160.1,159.4 202.8,134.7 223.2,146.5 		"/>
		<polygon class="st4" points="40.5,195.2 69.3,211.8 99.9,194.1 71.1,177.5 		"/>
		<polygon class="st4" points="147.3,256.9 129.1,246.3 171.8,221.7 190,232.2 		"/>
		<polygon class="st4" points="118.5,240.2 81,218.5 102.3,206.2 139.9,227.9 		"/>
		<polygon class="st4" points="296.5,209.5 274.6,196.8 296.2,184.4 318,197.1 		"/>
		<g>
			<polygon class="st4" points="40.5,150.3 69.3,166.9 99.9,149.2 71.1,132.6 			"/>
			<polygon class="st5" points="40.5,150.3 40.5,195.2 69.3,211.8 69.3,166.9 			"/>
			<polygon class="st6" points="99.9,149.2 69.3,166.9 69.3,211.8 99.9,194.1 			"/>
		</g>
		<g>
			<polygon class="st4" points="118.5,211.6 81,190 102.3,177.6 139.9,199.3 			"/>
			<polygon class="st5" points="81,190 81,218.5 118.5,240.2 118.5,211.6 			"/>
			<polygon class="st6" points="139.9,199.3 118.5,211.6 118.5,240.2 139.9,227.9 			"/>
		</g>
		<polygon class="st12" points="123.4,143.2 149.5,158.3 205.2,126.2 179.1,111.1 		"/>
		<polygon class="st4" points="180.5,152.9 160.1,141.2 202.8,116.5 223.2,128.3 		"/>
		<polygon class="st11" points="246.1,241.7 99.5,157 112.1,149.8 258.7,234.4 		"/>
		<g>
			<polygon class="st4" points="147.3,229.4 129.1,218.9 171.8,194.2 190,204.7 			"/>
			<polygon class="st5" points="129.1,218.9 129.1,246.3 147.3,256.9 147.3,229.4 			"/>
			<polygon class="st6" points="147.3,256.9 190,232.2 190,204.7 147.3,229.4 			"/>
		</g>
		<g>
			<polygon class="st6" points="223.2,128.3 180.5,152.9 180.5,171.2 223.2,146.5 			"/>
			<polygon class="st5" points="160.1,141.2 160.1,159.4 180.5,171.2 180.5,152.9 			"/>
			<g>
				<polygon class="st7" points="223.2,128.3 202.8,116.5 212.3,112.3 				"/>
				<polygon class="st8" points="180.5,152.9 160.1,141.2 169.6,137 				"/>
				<polygon class="st9" points="169.6,137 212.3,112.3 223.2,128.3 180.5,152.9 				"/>
				<polygon class="st10" points="202.8,116.5 212.3,112.3 169.6,137 160.1,141.2 				"/>
			</g>
		</g>
		<g>
			<polygon class="st4" points="210.8,162.6 190.4,150.8 233.1,126.2 253.5,138 			"/>
			<polygon class="st5" points="190.4,150.8 190.4,176.8 210.8,188.6 210.8,162.6 			"/>
			<polygon class="st6" points="253.5,138 210.8,162.6 210.8,188.6 253.5,163.9 			"/>
		</g>
		<g>
			<polygon class="st4" points="239.3,159.4 218.8,147.6 261.5,122.9 282,134.7 			"/>
			<polygon class="st5" points="218.8,147.6 218.8,193.3 239.3,205.1 239.3,159.4 			"/>
			<polygon class="st6" points="239.3,159.4 282,134.7 282,180.4 239.3,205.1 			"/>
		</g>
		<g>
			<polygon class="st4" points="296.5,185.8 274.6,173.1 296.2,160.7 318,173.3 			"/>
			<polygon class="st5" points="274.6,173.1 274.6,196.8 296.5,209.5 296.5,185.8 			"/>
			<polygon class="st6" points="318,173.3 296.5,185.8 296.5,209.5 318,197.1 			"/>
		</g>
		<polygon class="st13" points="32.5,201.9 32.5,195.7 179.1,280.4 179.1,286.5 		"/>
		<polygon class="st13" points="325.7,195.7 179.1,280.4 179.1,286.5 325.7,201.9 		"/>
		<polygon class="st12" points="150.5,263.9 203.9,233.1 232.4,249.5 179.1,280.4 		"/>
	</g>
</g>
<g id="Layer_4">
	<g>
		<polygon class="st13" points="31.8,195.3 31.8,201 178.6,286.6 326.3,200.9 326.3,195.3 		"/>
		<polygon class="st2" points="110.2,198.3 104.5,203.2 186.5,250.6 193.7,246.5 		"/>
		<polygon class="st14" points="129.1,176.2 80.6,167.1 61.3,178.3 100.6,201 		"/>
		<polygon class="st14" points="195.9,245.2 222.9,229.6 133.5,178 112,196.7 		"/>
		<polygon class="st12" points="145,162.4 116.9,146.2 83.1,165.7 130.9,174.6 		"/>
		<polygon class="st12" points="161.7,147.9 137.8,134.1 119.1,144.9 146.7,160.9 		"/>
		<polygon class="st12" points="194.4,210.6 232.4,188.7 165.6,150.1 135.3,176.5 		"/>
		<polygon class="st2" points="181.3,258 199.5,268.5 197.3,269.8 179.1,259.3 160.9,269.8 179.1,280.3 257,235.3 238.9,224.8 		"/>
		<polygon class="st2" points="234.6,187.4 273.6,164.9 275.8,166.1 196.6,211.9 216.8,223.5 296,177.8 287.2,172.7 208,218.4 
			225.1,228.3 304.3,182.6 198.5,121.5 167.4,148.6 		"/>
		<polygon class="st14" points="140,132.8 163.4,146.3 194.6,119.3 179.1,110.3 		"/>
		<polygon class="st2" points="259.2,234 326.3,195.3 308.2,184.8 241.1,223.6 		"/>
		<polygon class="st2" points="78.5,190.8 51.3,206.5 77.1,221.4 98.8,202.5 		"/>
		<polygon class="st2" points="59.1,179.6 31.8,195.3 49.1,205.3 76.3,189.5 		"/>
		<polygon class="st2" points="102.7,204.8 81,223.7 157.1,267.6 184.3,251.9 		"/>
		<path class="st15" d="M234.1,142c0,0-18.3,13.9-27.6,18.9c-9.3,4.9-15.5,9.2-16.9,13.9c-1.4,4.7-2.9,14.8,0.8,17.8
			c3.7,3,13.7,18.3,17.7,19.4c3.9,1.1,16.4,7.4,22.3,10.4c5.9,3,12.9,7.4,16.5,12.1c3.6,4.6,3.6,4.6,3.6,4.6l11-6.3
			c0,0-5.2-7.5-15.4-14.3c-10.2-6.8-13.1-5.1-19.2-8.8s-17.2-10.8-19.3-13.4c-2.1-2.6-5.8-7.7-2.8-12.7c2.9-5.1-1-4.9,3.7-10.6
			s8.3-11.2,15.7-14.1s13.9-6.7,16.5-9.1s2.6-2.4,2.6-2.4L234.1,142z"/>
		<path class="st3" d="M163.4,146.3L140,132.8l-2.2,1.3l23.9,13.8l-15,13l-27.7-16l-2.2,1.3l28.1,16.2l-14.1,12.2l-47.8-8.9
			l-2.5,1.4l48.5,9.1L100.6,201l-39.3-22.7l-2.2,1.3l17.3,10l-27.3,15.7l2.2,1.3l27.3-15.7l20.3,11.7l-21.8,18.9l3.9,2.3l21.8-18.9
			l81.6,47.1l-27.3,15.7l3.8,2.2l18.2-10.5l18.2,10.5l2.2-1.3L181.3,258l57.5-33.2l2.2-1.3l67.1-38.7l-3.8-2.2l-79.2,45.7l-4.3-2.5
			l-1.8-1l-2.2-1.3l-1.6-0.9l-18.6-10.7l79.2-45.7l-2.2-1.3l-39.1,22.6l-67.2-38.8l31.2-27.1l-3.9-2.3L163.4,146.3z M193.7,246.5
			l-7.2,4.1l-82-47.4l5.7-5L193.7,246.5z M222.9,229.6l-27,15.6L112,196.7l21.6-18.8L222.9,229.6z M232.4,188.7l-38,21.9l-59.1-34.1
			l30.3-26.3L232.4,188.7z"/>
		<g>
			<polygon class="st11" points="77.1,221.4 194.6,119.3 198.5,121.5 81,223.7 			"/>
			<polygon class="st11" points="157.1,267.6 304.3,182.6 308.2,184.8 160.9,269.8 			"/>
		</g>
		<g>
			<path class="st16" d="M201,240.8c4.1-2.4,8.2-4.7,12.3-7.1c0.2,0.1,0.4,0.2,0.6,0.3c4.2,2.2,5.5,5.7,3.1,8.7
				c-0.1,0.1-0.2,0.2-0.4,0.2c-4.6,1.1-8.9,0.9-13-0.7C202.6,241.9,201.8,241.4,201,240.8z"/>
			<path class="st17" d="M209.4,232.5c1.2,0.2,2.3,0.6,3.4,1c-4.1,2.3-8.1,4.7-12.2,7c-0.8-0.6-1.3-1.3-1.7-2
				c0.5-0.1,0.9-0.3,1.3-0.4c1.8-0.6,2.9-1.6,3.4-2.7c0-0.1,0.1-0.2,0.3-0.2c2.5-0.3,4.3-1.2,5.4-2.6
				C209.3,232.6,209.3,232.6,209.4,232.5C209.4,232.6,209.4,232.6,209.4,232.5z"/>
			<path class="st18" d="M200.6,240.6c0,0,0.2,0.1,0.4,0.3l12.3-7.1c0,0-0.2-0.1-0.5-0.2L200.6,240.6z"/>
		</g>
		<path class="st19" d="M96.1,197.3l-4.1,2.4c-2.8,1.6-7.4,1.6-10.1,0l0,0c-2.8-1.6-2.8-4.2,0-5.9l4.1-2.4c2.8-1.6,7.4-1.6,10.1,0h0
			C98.9,193,98.9,195.7,96.1,197.3z"/>
		<line class="st20" x1="179.3" y1="155.5" x2="218.4" y2="133"/>
		<polygon class="st3" points="182.3,130.1 181.2,130.7 162.4,119.9 163.5,119.3 		"/>
		<polygon class="st3" points="193.9,147.1 192.8,147.7 178.4,139.4 179.5,138.7 		"/>
		<polygon class="st3" points="202.8,142 201.7,142.6 185.1,133 186.2,132.4 		"/>
		<polygon class="st3" points="211.9,136.7 210.8,137.4 192.2,126.6 193.3,126 		"/>
		<polygon class="st3" points="165.2,240.8 137.9,256.6 136.8,255.9 164.1,240.2 		"/>
		<polygon class="st3" points="156,235.5 128.8,251.3 127.7,250.6 154.9,234.9 		"/>
		<polygon class="st3" points="167.8,261.4 166.7,262 147,250.7 148.1,250 		"/>
		<polygon class="st3" points="61.6,198 60.5,198.7 43.3,188.7 44.4,188 		"/>
		<polygon class="st3" points="191.3,117.4 152.3,139.9 151.2,139.3 190.2,116.7 		"/>
	</g>
</g>
<g id="Layer_3" class="st0">
	<g class="st1">
		<polygon class="st3" points="241.4,210.7 297.1,178.5 294.9,177.3 239.3,209.4 211.5,193.4 267.2,161.3 265,160 209.3,192.1 
			181.6,176.1 237.3,144 235.1,142.7 179.4,174.9 151.7,158.9 207.4,126.7 205.2,125.5 149.5,157.6 123.4,142.5 121.2,143.8 
			267.8,228.4 270,227.2 		"/>
		<polygon class="st3" points="85.8,164.2 124.4,186.5 71,217.3 73.2,218.5 126.6,187.7 171.8,213.8 118.4,244.6 120.6,245.9 
			174,215.1 201.7,231.1 148.3,261.9 150.5,263.2 203.9,232.4 232.4,248.8 234.6,247.6 88,162.9 		"/>
	</g>
	<g class="st1">
		<polygon class="st2" points="151.7,158.9 179.4,174.9 235.1,142.7 207.4,126.7 		"/>
		<polygon class="st2" points="294.9,177.3 267.2,161.3 211.5,193.4 239.3,209.4 		"/>
		<polygon class="st2" points="265,160 237.3,144 181.6,176.1 209.3,192.1 		"/>
		<polygon class="st2" points="325.7,195 297.1,178.5 241.4,210.7 270,227.2 		"/>
		<path class="st2" d="M121.2,143.8l2.2-1.3l26.2,15.1l55.7-32.1l-26.2-15.1L32.5,195l146.6,84.6l88.7-51.2L121.2,143.8z
			 M203.9,232.4l-53.4,30.8l-2.2-1.3l53.4-30.8l-27.7-16l-53.4,30.8l-2.2-1.3l53.4-30.8l-45.2-26.1l-53.4,30.8l-2.2-1.3l53.4-30.8
			l-38.6-22.3l2.2-1.3l146.6,84.6l-2.2,1.3L203.9,232.4z"/>
	</g>
	<polygon class="st21" points="210.8,187.9 190.4,176.1 233.1,151.5 253.5,163.3 	"/>
	<polygon class="st21" points="239.3,204.4 218.8,192.6 261.5,167.9 282,179.7 	"/>
	<polygon class="st21" points="147.3,256.1 129.1,245.6 171.8,221 190,231.5 	"/>
	<polygon class="st21" points="296.5,208.8 274.6,196.1 296.2,183.7 318,196.4 	"/>
	<polygon class="st22" points="246.1,241 99.5,156.3 112.1,149.1 258.7,233.7 	"/>
	<g class="st1">
		<polygon class="st4" points="147.3,228.7 129.1,218.1 171.8,193.5 190,204 		"/>
		<polygon class="st5" points="129.1,218.1 129.1,245.6 147.3,256.1 147.3,228.7 		"/>
		<polygon class="st6" points="147.3,256.1 190,231.5 190,204 147.3,228.7 		"/>
	</g>
	<g class="st1">
		<polygon class="st4" points="239.3,158.7 218.8,146.9 261.5,122.2 282,134 		"/>
		<polygon class="st5" points="218.8,146.9 218.8,192.6 239.3,204.4 239.3,158.7 		"/>
		<polygon class="st6" points="239.3,158.7 282,134 282,179.7 239.3,204.4 		"/>
	</g>
	<g class="st1">
		<polygon class="st4" points="296.5,185.1 274.6,172.4 296.2,160 318,172.6 		"/>
		<polygon class="st5" points="274.6,172.4 274.6,196.1 296.5,208.8 296.5,185.1 		"/>
		<polygon class="st6" points="318,172.6 296.5,185.1 296.5,208.8 318,196.4 		"/>
	</g>
	<g class="st1">
		<polygon class="st3" points="241.4,210.7 297.1,178.5 294.9,177.3 239.3,209.4 211.5,193.4 267.2,161.3 265,160 209.3,192.1 
			181.6,176.1 237.3,144 235.1,142.7 179.4,174.9 151.7,158.9 207.4,126.7 205.2,125.5 149.5,157.6 123.4,142.5 121.2,143.8 
			267.8,228.4 270,227.2 		"/>
		<polygon class="st3" points="85.8,164.2 124.4,186.5 71,217.3 73.2,218.5 126.6,187.7 171.8,213.8 118.4,244.6 120.6,245.9 
			174,215.1 201.7,231.1 148.3,261.9 150.5,263.2 203.9,232.4 232.4,248.8 234.6,247.6 88,162.9 		"/>
	</g>
	<polygon class="st21" points="210.8,187.9 190.4,176.1 233.1,151.5 253.5,163.3 	"/>
	<polygon class="st21" points="239.3,204.4 218.8,192.6 261.5,167.9 282,179.7 	"/>
	<polygon class="st21" points="147.3,256.1 129.1,245.6 171.8,221 190,231.5 	"/>
	<polygon class="st21" points="296.5,208.8 274.6,196.1 296.2,183.7 318,196.4 	"/>
	<g class="st1">
		<polygon class="st4" points="147.3,228.7 129.1,218.1 171.8,193.5 190,204 		"/>
		<polygon class="st5" points="129.1,218.1 129.1,245.6 147.3,256.1 147.3,228.7 		"/>
		<polygon class="st6" points="147.3,256.1 190,231.5 190,204 147.3,228.7 		"/>
	</g>
	<g class="st1">
		<polygon class="st4" points="239.3,158.7 218.8,146.9 261.5,122.2 282,134 		"/>
		<polygon class="st5" points="218.8,146.9 218.8,192.6 239.3,204.4 239.3,158.7 		"/>
		<polygon class="st6" points="239.3,158.7 282,134 282,179.7 239.3,204.4 		"/>
	</g>
	<g class="st1">
		<polygon class="st4" points="296.5,185.1 274.6,172.4 296.2,160 318,172.6 		"/>
		<polygon class="st5" points="274.6,172.4 274.6,196.1 296.5,208.8 296.5,185.1 		"/>
		<polygon class="st6" points="318,172.6 296.5,185.1 296.5,208.8 318,196.4 		"/>
	</g>
	<polygon class="st23" points="32.5,201.2 32.5,195 179.1,279.7 179.1,285.8 	"/>
	<polygon class="st23" points="325.7,195 179.1,279.7 179.1,285.8 325.7,201.2 	"/>
	<g class="st1">
		<polygon class="st24" points="87.5,198.3 62.3,183.8 87.5,169.3 112.6,183.8 		"/>
		<polygon class="st25" points="62.3,183.8 62.3,188.2 87.5,202.7 87.5,198.3 		"/>
		<polygon class="st26" points="112.6,183.8 112.6,188.2 87.5,202.7 87.5,198.3 		"/>
		<polygon class="st24" points="139.7,146.4 136.4,144.5 139.7,142.6 143,144.5 		"/>
		<polygon class="st25" points="136.4,144.5 136.4,145.1 139.7,147 139.7,146.4 		"/>
		<polygon class="st26" points="143,144.5 143,145.1 139.7,147 139.7,146.4 		"/>
		<g>
			<polygon class="st27" points="55,43.3 37.9,32.9 49,26.5 66.2,36.9 			"/>
			<polygon class="st28" points="37.9,32.9 37.9,48.1 55,58.5 55,43.3 			"/>
			<polygon class="st29" points="66.2,36.9 66.2,52.1 55,58.5 55,43.3 			"/>
		</g>
		<g>
			<polygon class="st27" points="138.5,96.7 130.9,92.1 135.9,89.2 143.5,93.8 			"/>
			<polygon class="st28" points="130.9,92.1 130.9,94 138.5,98.6 138.5,96.7 			"/>
			<polygon class="st29" points="143.5,93.8 143.5,95.8 138.5,98.6 138.5,96.7 			"/>
		</g>
		<polygon class="st27" points="87.5,165 80.1,160.7 87.5,156.4 94.9,160.7 		"/>
		<polygon class="st30" points="72.7,182.1 72.7,184.7 87.5,193.3 87.5,190.7 		"/>
		<polygon class="st31" points="102.3,182.1 102.3,184.7 87.5,193.3 87.5,190.7 		"/>
		<polygon class="st32" points="76.2,43 76.2,44.9 87.5,51.5 87.5,49.5 		"/>
		<polygon class="st33" points="98.8,43 98.8,44.9 87.5,51.5 87.5,49.5 		"/>
		<polygon class="st29" points="87.5,190.7 87.5,173.5 94.9,169.3 102.3,182.1 		"/>
		<polygon class="st28" points="72.7,182.1 80.1,169.3 87.5,173.5 87.5,190.7 		"/>
		<polygon class="st28" points="80.1,169.3 80.1,160.7 87.5,165 87.5,173.5 		"/>
		<polygon class="st29" points="94.9,169.3 94.9,160.7 87.5,165 87.5,173.5 		"/>
		<path class="st32" d="M87.5,174.9c-0.1,0-0.3,0-0.4-0.1l-7.5-4.4c-0.2-0.1-0.3-0.3-0.3-0.4c0-0.2,0.1-0.3,0.3-0.4l0.4,0.7
			c0.1,0,0.1-0.1,0.1-0.2c0-0.1-0.1-0.2-0.1-0.2l7.5,4.3l7.5-4.3c-0.1,0-0.1,0.1-0.1,0.2c0,0.1,0.1,0.2,0.1,0.2l0.4-0.7
			c0.2,0.1,0.3,0.3,0.3,0.4c0,0.2-0.1,0.3-0.3,0.4l-7.5,4.3C87.7,174.9,87.6,174.9,87.5,174.9z"/>
		<path class="st34" d="M87.3,165.1l-7.5-4.3c-0.1-0.1-0.1-0.1,0-0.2l7.5-4.3c0.1-0.1,0.3-0.1,0.3,0l7.5,4.3c0.1,0.1,0.1,0.1,0,0.2
			l-7.5,4.3C87.6,165.2,87.4,165.2,87.3,165.1z"/>
		<path class="st34" d="M87.3,155.8l-7.5-4.3c-0.1-0.1-0.1-0.1,0-0.2l7.5-4.3c0.1-0.1,0.3-0.1,0.3,0l7.5,4.3c0.1,0.1,0.1,0.1,0,0.2
			l-7.5,4.3C87.6,155.9,87.4,155.9,87.3,155.8z"/>
		<path class="st34" d="M87.3,146.4l-7.5-4.3c-0.1-0.1-0.1-0.1,0-0.2l7.5-4.3c0.1-0.1,0.3-0.1,0.3,0l7.5,4.3c0.1,0.1,0.1,0.1,0,0.2
			l-7.5,4.3C87.6,146.5,87.4,146.5,87.3,146.4z"/>
		<path class="st34" d="M87.3,137.1l-7.5-4.3c-0.1-0.1-0.1-0.1,0-0.2l7.5-4.3c0.1-0.1,0.3-0.1,0.3,0l7.5,4.3c0.1,0.1,0.1,0.1,0,0.2
			l-7.5,4.3C87.6,137.2,87.4,137.2,87.3,137.1z"/>
		<path class="st34" d="M87.3,127.8l-7.5-4.3c-0.1-0.1-0.1-0.1,0-0.2l7.5-4.3c0.1-0.1,0.3-0.1,0.3,0l7.5,4.3c0.1,0.1,0.1,0.1,0,0.2
			l-7.5,4.3C87.6,127.8,87.4,127.8,87.3,127.8z"/>
		<path class="st34" d="M87.3,118.4l-7.5-4.3c-0.1-0.1-0.1-0.1,0-0.2l7.5-4.3c0.1-0.1,0.3-0.1,0.3,0l7.5,4.3c0.1,0.1,0.1,0.1,0,0.2
			l-7.5,4.3C87.6,118.5,87.4,118.5,87.3,118.4z"/>
		<path class="st34" d="M87.3,109.1l-7.5-4.3c-0.1-0.1-0.1-0.1,0-0.2l7.5-4.3c0.1-0.1,0.3-0.1,0.3,0l7.5,4.3c0.1,0.1,0.1,0.1,0,0.2
			l-7.5,4.3C87.6,109.1,87.4,109.1,87.3,109.1z"/>
		<path class="st34" d="M87.3,99.7l-7.5-4.3c-0.1-0.1-0.1-0.1,0-0.2l7.5-4.3c0.1-0.1,0.3-0.1,0.3,0l7.5,4.3c0.1,0.1,0.1,0.1,0,0.2
			l-7.5,4.3C87.6,99.8,87.4,99.8,87.3,99.7z"/>
		<path class="st34" d="M87.3,90.4L79.8,86c-0.1-0.1-0.1-0.1,0-0.2l7.5-4.3c0.1-0.1,0.3-0.1,0.3,0l7.5,4.3c0.1,0.1,0.1,0.1,0,0.2
			l-7.5,4.3C87.6,90.4,87.4,90.4,87.3,90.4z"/>
		<path class="st34" d="M87.3,81l-7.5-4.3c-0.1-0.1-0.1-0.1,0-0.2l7.5-4.3c0.1-0.1,0.3-0.1,0.3,0l7.5,4.3c0.1,0.1,0.1,0.1,0,0.2
			L87.7,81C87.6,81.1,87.4,81.1,87.3,81z"/>
		<path class="st32" d="M87.5,72.1c-0.1,0-0.3,0-0.4-0.1l0,0l-7.5-4.3c-0.2-0.1-0.3-0.3-0.3-0.4s0.1-0.3,0.3-0.4l7.5-4.3
			c0.2-0.1,0.5-0.1,0.7,0l7.5,4.3c0.2,0.1,0.3,0.3,0.3,0.4c0,0.2-0.1,0.3-0.3,0.4L87.9,72C87.7,72.1,87.6,72.1,87.5,72.1z
			 M80.4,67.2l7.1,4.1l7.1-4.1l-7.1-4.1L80.4,67.2z"/>
		<rect x="79.3" y="67.2" class="st32" width="0.8" height="103.1"/>
		<rect x="94.9" y="67.2" class="st32" width="0.8" height="103.1"/>
		<rect x="87.1" y="71.3" class="st32" width="0.8" height="103.1"/>
		<g>
			<polygon class="st27" points="87.5,71.2 78.1,65.8 87.5,60.4 96.9,65.8 			"/>
			<polygon class="st28" points="78.1,65.8 78.1,67.4 87.5,72.8 87.5,71.2 			"/>
			<polygon class="st29" points="96.9,65.8 96.9,67.4 87.5,72.8 87.5,71.2 			"/>
		</g>
		<g>
			<polygon class="st35" points="161.8,112.4 58.5,52.7 58.5,47 161.8,106.7 			"/>
			<polygon class="st35" points="63.4,55.6 58.5,52.7 58.5,47 63.4,49.9 			"/>
			<polygon class="st35" points="68.3,58.4 63.4,55.6 63.4,49.9 68.3,52.7 			"/>
			<polygon class="st35" points="73.3,61.2 68.3,58.4 68.3,52.7 73.3,55.6 			"/>
			<polygon class="st35" points="78.2,64.1 73.3,61.2 73.3,55.6 78.2,58.4 			"/>
			<polygon class="st35" points="83.1,66.9 78.2,64.1 78.2,58.4 83.1,61.2 			"/>
			<polygon class="st35" points="88,69.8 83.1,66.9 83.1,61.2 88,64.1 			"/>
			<polygon class="st35" points="92.9,72.6 88,69.8 88,64.1 92.9,66.9 			"/>
			<polygon class="st35" points="97.9,75.5 92.9,72.6 92.9,66.9 97.9,69.8 			"/>
			<polygon class="st35" points="102.8,78.3 97.9,75.5 97.9,69.8 102.8,72.6 			"/>
			<polygon class="st35" points="107.7,81.1 102.8,78.3 102.8,72.6 107.7,75.5 			"/>
			<polygon class="st35" points="112.6,84 107.7,81.1 107.7,75.5 112.6,78.3 			"/>
			<polygon class="st35" points="117.5,86.8 112.6,84 112.6,78.3 117.5,81.1 			"/>
			<polygon class="st35" points="122.5,89.7 117.5,86.8 117.5,81.1 122.5,84 			"/>
			<polygon class="st35" points="127.4,92.5 122.5,89.7 122.5,84 127.4,86.8 			"/>
			<polyline class="st35" points="132.3,95.3 127.4,92.5 127.4,86.8 132.3,89.7 			"/>
			<polyline class="st35" points="137.2,92.5 142.1,95.3 142.1,101 137.2,98.2 			"/>
			<polygon class="st35" points="147.1,103.9 142.1,101 142.1,95.3 147.1,98.2 			"/>
			<polygon class="st35" points="152,106.7 147.1,103.9 147.1,98.2 152,101 			"/>
			<polygon class="st35" points="156.9,109.5 152,106.7 152,101 156.9,103.9 			"/>
			<polygon class="st35" points="161.8,112.4 156.9,109.5 156.9,103.9 161.8,106.7 			"/>
		</g>
		<g>
			<polygon class="st35" points="166.7,109.1 63.4,49.5 63.4,43.8 166.7,103.4 			"/>
			<polygon class="st35" points="68.3,52.3 63.4,49.5 63.4,43.8 68.3,46.6 			"/>
			<polygon class="st35" points="73.3,55.2 68.3,52.3 68.3,46.6 73.3,49.5 			"/>
			<polygon class="st35" points="78.2,58 73.3,55.2 73.3,49.5 78.2,52.3 			"/>
			<polygon class="st35" points="83.1,60.8 78.2,58 78.2,52.3 83.1,55.2 			"/>
			<polygon class="st35" points="88,63.7 83.1,60.8 83.1,55.2 88,58 			"/>
			<polygon class="st35" points="92.9,66.5 88,63.7 88,58 92.9,60.8 			"/>
			<polygon class="st35" points="97.9,69.4 92.9,66.5 92.9,60.8 97.9,63.7 			"/>
			<polygon class="st35" points="102.8,72.2 97.9,69.4 97.9,63.7 102.8,66.5 			"/>
			<polygon class="st35" points="107.7,75 102.8,72.2 102.8,66.5 107.7,69.4 			"/>
			<polygon class="st35" points="112.6,77.9 107.7,75 107.7,69.4 112.6,72.2 			"/>
			<polygon class="st35" points="117.5,80.7 112.6,77.9 112.6,72.2 117.5,75 			"/>
			<polygon class="st35" points="122.5,83.6 117.5,80.7 117.5,75 122.5,77.9 			"/>
			<polygon class="st35" points="127.4,86.4 122.5,83.6 122.5,77.9 127.4,80.7 			"/>
			<polygon class="st35" points="132.3,89.2 127.4,86.4 127.4,80.7 132.3,83.6 			"/>
			<polyline class="st35" points="137.2,92.1 132.3,89.2 132.3,83.6 137.2,86.4 			"/>
			<line class="st35" x1="142.1" y1="94.9" x2="137.2" y2="92.1"/>
			<line class="st35" x1="137.2" y1="86.4" x2="142.1" y2="89.2"/>
			<polyline class="st35" points="142.1,89.2 147.1,92.1 147.1,97.8 142.1,94.9 			"/>
			<polygon class="st35" points="152,100.6 147.1,97.8 147.1,92.1 152,94.9 			"/>
			<polygon class="st35" points="156.9,103.4 152,100.6 152,94.9 156.9,97.8 			"/>
			<polygon class="st35" points="161.8,106.3 156.9,103.4 156.9,97.8 161.8,100.6 			"/>
			<polygon class="st35" points="166.7,109.1 161.8,106.3 161.8,100.6 166.7,103.4 			"/>
		</g>
		<g>
			<polygon class="st35" points="161.8,112.4 58.5,52.7 63.4,49.9 166.7,109.5 			"/>
			<polygon class="st35" points="63.4,55.6 58.5,52.7 63.4,49.9 68.3,52.7 			"/>
			<polygon class="st35" points="68.3,58.4 63.4,55.6 68.3,52.7 73.3,55.6 			"/>
			<polygon class="st35" points="73.3,61.3 68.3,58.4 73.3,55.6 78.2,58.4 			"/>
			<polygon class="st35" points="78.2,64.1 73.3,61.3 78.2,58.4 83.1,61.3 			"/>
			<polygon class="st35" points="83.1,66.9 78.2,64.1 83.1,61.3 88,64.1 			"/>
			<polygon class="st35" points="88,69.8 83.1,66.9 88,64.1 92.9,66.9 			"/>
			<polygon class="st35" points="92.9,72.6 88,69.8 92.9,66.9 97.9,69.8 			"/>
			<polygon class="st35" points="97.9,75.5 92.9,72.6 97.9,69.8 102.8,72.6 			"/>
			<polygon class="st35" points="102.8,78.3 97.9,75.5 102.8,72.6 107.7,75.5 			"/>
			<polygon class="st35" points="107.7,81.1 102.8,78.3 107.7,75.5 112.6,78.3 			"/>
			<polygon class="st35" points="112.6,84 107.7,81.1 112.6,78.3 117.5,81.1 			"/>
			<polygon class="st35" points="117.5,86.8 112.6,84 117.5,81.1 122.5,84 			"/>
			<polygon class="st35" points="122.5,89.7 117.5,86.8 122.5,84 127.4,86.8 			"/>
			<polygon class="st35" points="127.4,92.5 122.5,89.7 127.4,86.8 132.3,89.7 			"/>
			<line class="st35" x1="137.2" y1="98.2" x2="132.3" y2="95.3"/>
			<line class="st35" x1="137.2" y1="92.5" x2="142.1" y2="95.3"/>
			<polyline class="st35" points="142.1,95.3 147.1,98.2 142.1,101 137.2,98.2 			"/>
			<polygon class="st35" points="147.1,103.9 142.1,101 147.1,98.2 152,101 			"/>
			<polygon class="st35" points="152,106.7 147.1,103.9 152,101 156.9,103.9 			"/>
			<polygon class="st35" points="156.9,109.5 152,106.7 156.9,103.9 161.8,106.7 			"/>
			<polygon class="st35" points="161.8,112.4 156.9,109.5 161.8,106.7 166.7,109.5 			"/>
		</g>
		<g>
			<polygon class="st35" points="161.8,106.3 58.5,46.6 63.4,43.8 166.7,103.4 			"/>
			<polygon class="st35" points="63.4,49.5 58.5,46.6 63.4,43.8 68.3,46.6 			"/>
			<polygon class="st35" points="68.3,52.3 63.4,49.5 68.3,46.6 73.3,49.5 			"/>
			<polygon class="st35" points="73.3,55.1 68.3,52.3 73.3,49.5 78.2,52.3 			"/>
			<polygon class="st35" points="78.2,58 73.3,55.1 78.2,52.3 83.1,55.1 			"/>
			<polygon class="st35" points="83.1,60.8 78.2,58 83.1,55.1 88,58 			"/>
			<polygon class="st35" points="88,63.7 83.1,60.8 88,58 92.9,60.8 			"/>
			<polygon class="st35" points="92.9,66.5 88,63.7 92.9,60.8 97.9,63.7 			"/>
			<polygon class="st35" points="97.9,69.4 92.9,66.5 97.9,63.7 102.8,66.5 			"/>
			<polygon class="st35" points="102.8,72.2 97.9,69.4 102.8,66.5 107.7,69.4 			"/>
			<polygon class="st35" points="107.7,75 102.8,72.2 107.7,69.4 112.6,72.2 			"/>
			<polygon class="st35" points="112.6,77.9 107.7,75 112.6,72.2 117.5,75 			"/>
			<polygon class="st35" points="117.5,80.7 112.6,77.9 117.5,75 122.5,77.9 			"/>
			<polygon class="st35" points="122.5,83.6 117.5,80.7 122.5,77.9 127.4,80.7 			"/>
			<polygon class="st35" points="127.4,86.4 122.5,83.6 127.4,80.7 132.3,83.6 			"/>
			<polyline class="st35" points="132.3,89.2 127.4,86.4 132.3,83.6 137.2,86.4 			"/>
			<line class="st35" x1="137.2" y1="92.1" x2="132.3" y2="89.2"/>
			<line class="st35" x1="137.2" y1="86.4" x2="142.1" y2="89.2"/>
			<polygon class="st35" points="147.1,97.8 142.1,94.9 147.1,92.1 152,94.9 			"/>
			<polygon class="st35" points="152,100.6 147.1,97.8 152,94.9 156.9,97.8 			"/>
			<polygon class="st35" points="156.9,103.4 152,100.6 156.9,97.8 161.8,100.6 			"/>
			<polygon class="st35" points="161.8,106.3 156.9,103.4 161.8,100.6 166.7,103.4 			"/>
		</g>
		<g>
			<polygon class="st28" points="78.1,59.2 78.1,60.8 87.5,66.2 87.5,64.6 			"/>
			<polygon class="st29" points="96.9,59.2 96.9,60.8 87.5,66.2 87.5,64.6 			"/>
		</g>
		<polygon class="st36" points="76.2,44.9 78.1,59.2 87.5,64.6 87.5,51.5 		"/>
		<polygon class="st37" points="77.3,46.9 78.9,58.3 86.4,62.6 86.4,52.1 		"/>
		<polygon class="st38" points="98.8,44.9 87.5,51.5 87.5,64.6 96.9,59.2 		"/>
		<polygon class="st39" points="97.8,46.7 88.5,52.1 88.5,62.8 96.2,58.4 		"/>
		<polygon class="st40" points="87.5,49.5 76.1,43 87.5,36.4 98.9,43 		"/>
		<g>
			<polygon class="st27" points="87.2,41.5 83.5,39.4 87.2,37.3 90.9,39.4 			"/>
			<polygon class="st28" points="83.5,43.7 83.5,39.4 87.2,41.5 87.2,45.8 			"/>
			<polygon class="st29" points="90.9,43.7 90.9,39.4 87.2,41.5 87.2,45.8 			"/>
		</g>
		<polygon class="st35" points="60.6,40.1 83.5,39.4 87.2,41.5 140.2,96 90.9,39.4 87.2,37.3 		"/>
		<line class="st35" x1="140.2" y1="96" x2="139.7" y2="144.8"/>
	</g>
</g>
<g id="Layer_2" class="st0">
	<g class="st1">
		<polygon class="st2" points="179.1,286.2 32.8,201.7 179.1,117.3 325.4,201.7 		"/>
		<g>
			<polygon class="st3" points="241.3,211.2 296.9,179.1 294.7,177.8 239.1,209.9 211.5,193.9 267,161.9 264.9,160.6 209.3,192.7 
				181.6,176.7 237.2,144.6 235,143.4 179.4,175.5 151.8,159.5 207.3,127.4 205.2,126.1 149.6,158.2 123.5,143.2 121.3,144.4 
				267.6,228.9 269.8,227.6 			"/>
			<polygon class="st3" points="86,164.8 124.5,187 71.2,217.8 73.4,219 126.7,188.3 171.8,214.3 118.5,245.1 120.7,246.3 
				174,215.6 201.6,231.6 148.4,262.3 150.6,263.6 203.8,232.8 232.3,249.3 234.5,248 88.2,163.5 			"/>
		</g>
		<g>
			<polygon class="st2" points="151.8,159.5 179.4,175.5 235,143.4 207.3,127.4 			"/>
			<polygon class="st2" points="294.7,177.8 267,161.9 211.5,193.9 239.1,209.9 			"/>
			<polygon class="st2" points="264.9,160.6 237.2,144.6 181.6,176.7 209.3,192.7 			"/>
			<polygon class="st2" points="325.4,195.5 296.9,179.1 241.3,211.2 269.8,227.6 			"/>
			<path class="st2" d="M121.3,144.4l2.2-1.3l26.1,15.1l55.6-32.1l-26.1-15.1L32.8,195.5L179.1,280l88.6-51.1L121.3,144.4z
				 M203.8,232.8l-53.3,30.7l-2.2-1.3l53.3-30.7l-27.7-16l-53.3,30.7l-2.2-1.3l53.3-30.7l-45.1-26.1L73.4,219l-2.2-1.3l53.3-30.7
				L86,164.8l2.2-1.3L234.5,248l-2.2,1.3L203.8,232.8z"/>
		</g>
		<polygon class="st4" points="210.7,188.5 190.4,176.7 233,152.1 253.4,163.9 		"/>
		<polygon class="st4" points="239.1,204.9 218.8,193.1 261.4,168.5 281.7,180.3 		"/>
		<polygon class="st4" points="180.5,171 160.2,159.3 202.8,134.7 223.1,146.4 		"/>
		<polygon class="st4" points="40.8,195 69.5,211.6 100.1,193.9 71.3,177.3 		"/>
		<polygon class="st4" points="147.4,256.6 129.2,246.1 171.8,221.5 190,232 		"/>
		<polygon class="st4" points="118.7,240 81.2,218.3 102.5,206 140,227.7 		"/>
		<polygon class="st4" points="296.3,209.3 274.4,196.7 295.9,184.3 317.8,196.9 		"/>
		<g>
			<polygon class="st4" points="40.8,150.2 69.5,166.8 100.1,149.2 71.3,132.6 			"/>
			<polygon class="st5" points="40.8,150.2 40.8,195 69.5,211.6 69.5,166.8 			"/>
			<polygon class="st6" points="100.1,149.2 69.5,166.8 69.5,211.6 100.1,193.9 			"/>
		</g>
		<g>
			<polygon class="st4" points="118.7,211.4 81.2,189.8 102.5,177.5 140,199.1 			"/>
			<polygon class="st5" points="81.2,189.8 81.2,218.3 118.7,240 118.7,211.4 			"/>
			<polygon class="st6" points="140,199.1 118.7,211.4 118.7,240 140,227.7 			"/>
		</g>
		<polygon class="st4" points="180.5,152.9 160.2,141.1 202.8,116.5 223.1,128.3 		"/>
		<g>
			<polygon class="st6" points="223.1,128.3 180.5,152.9 180.5,171 223.1,146.4 			"/>
			<polygon class="st5" points="160.2,141.1 160.2,159.3 180.5,171 180.5,152.9 			"/>
			<g>
				<polygon class="st7" points="223.1,128.3 202.8,116.5 212.2,112.3 				"/>
				<polygon class="st8" points="180.5,152.9 160.2,141.1 169.6,136.9 				"/>
				<polygon class="st9" points="169.6,136.9 212.2,112.3 223.1,128.3 180.5,152.9 				"/>
				<polygon class="st10" points="202.8,116.5 212.2,112.3 169.6,136.9 160.2,141.1 				"/>
			</g>
		</g>
		<polygon class="st11" points="245.9,241.4 99.6,156.9 112.2,149.7 258.5,234.2 		"/>
		<g>
			<polygon class="st4" points="147.4,229.1 129.2,218.6 171.8,194 190,204.6 			"/>
			<polygon class="st5" points="129.2,218.6 129.2,246.1 147.4,256.6 147.4,229.1 			"/>
			<polygon class="st6" points="147.4,256.6 190,232 190,204.6 147.4,229.1 			"/>
		</g>
		<g>
			<polygon class="st4" points="210.7,162.5 190.4,150.7 233,126.1 253.4,137.9 			"/>
			<polygon class="st5" points="190.4,150.7 190.4,176.7 210.7,188.4 210.7,162.5 			"/>
			<polygon class="st6" points="253.4,137.9 210.7,162.5 210.7,188.4 253.4,163.8 			"/>
		</g>
		<g>
			<polygon class="st4" points="239.1,159.3 218.8,147.5 261.4,122.9 281.7,134.7 			"/>
			<polygon class="st5" points="218.8,147.5 218.8,193.1 239.1,204.9 239.1,159.3 			"/>
			<polygon class="st6" points="239.1,159.3 281.7,134.7 281.7,180.3 239.1,204.9 			"/>
		</g>
		<g>
			<polygon class="st4" points="296.3,185.6 274.4,173 295.9,160.6 317.8,173.2 			"/>
			<polygon class="st5" points="274.4,173 274.4,196.7 296.3,209.3 296.3,185.6 			"/>
			<polygon class="st6" points="317.8,173.2 296.3,185.6 296.3,209.3 317.8,196.9 			"/>
		</g>
		<g>
			<polygon class="st3" points="241.3,211.2 296.9,179.1 294.7,177.8 239.1,209.9 211.5,193.9 267,161.9 264.9,160.6 209.3,192.7 
				181.6,176.7 237.2,144.6 235,143.4 179.4,175.5 151.8,159.5 207.3,127.4 205.2,126.1 149.6,158.2 123.5,143.2 121.3,144.4 
				267.6,228.9 269.8,227.6 			"/>
			<polygon class="st3" points="86,164.8 124.5,187 71.2,217.8 73.4,219 126.7,188.3 171.8,214.3 118.5,245.1 120.7,246.3 
				174,215.6 201.6,231.6 148.4,262.3 150.6,263.6 203.8,232.8 232.3,249.3 234.5,248 88.2,163.5 			"/>
		</g>
		<g>
			<polygon class="st2" points="151.8,159.5 179.4,175.5 235,143.4 207.3,127.4 			"/>
			<polygon class="st2" points="294.7,177.8 267,161.9 211.5,193.9 239.1,209.9 			"/>
			<polygon class="st2" points="264.9,160.6 237.2,144.6 181.6,176.7 209.3,192.7 			"/>
			<polygon class="st2" points="325.4,195.5 296.9,179.1 241.3,211.2 269.8,227.6 			"/>
			<path class="st2" d="M121.3,144.4l2.2-1.3l26.1,15.1l55.6-32.1l-26.1-15.1L32.8,195.5L179.1,280l88.6-51.1L121.3,144.4z
				 M203.8,232.8l-53.3,30.7l-2.2-1.3l53.3-30.7l-27.7-16l-53.3,30.7l-2.2-1.3l53.3-30.7l-45.1-26.1L73.4,219l-2.2-1.3l53.3-30.7
				L86,164.8l2.2-1.3L234.5,248l-2.2,1.3L203.8,232.8z"/>
		</g>
		<polygon class="st4" points="210.7,188.5 190.4,176.7 233,152.1 253.4,163.9 		"/>
		<polygon class="st4" points="239.1,204.9 218.8,193.1 261.4,168.5 281.7,180.3 		"/>
		<polygon class="st4" points="180.5,171 160.2,159.3 202.8,134.7 223.1,146.4 		"/>
		<polygon class="st4" points="40.8,195 69.5,211.6 100.1,193.9 71.3,177.3 		"/>
		<polygon class="st4" points="147.4,256.6 129.2,246.1 171.8,221.5 190,232 		"/>
		<polygon class="st4" points="118.7,240 81.2,218.3 102.5,206 140,227.7 		"/>
		<polygon class="st4" points="296.3,209.3 274.4,196.7 295.9,184.3 317.8,196.9 		"/>
		<g>
			<polygon class="st4" points="40.8,150.2 69.5,166.8 100.1,149.2 71.3,132.6 			"/>
			<polygon class="st5" points="40.8,150.2 40.8,195 69.5,211.6 69.5,166.8 			"/>
			<polygon class="st6" points="100.1,149.2 69.5,166.8 69.5,211.6 100.1,193.9 			"/>
		</g>
		<g>
			<polygon class="st4" points="118.7,211.4 81.2,189.8 102.5,177.5 140,199.1 			"/>
			<polygon class="st5" points="81.2,189.8 81.2,218.3 118.7,240 118.7,211.4 			"/>
			<polygon class="st6" points="140,199.1 118.7,211.4 118.7,240 140,227.7 			"/>
		</g>
		<polygon class="st12" points="123.5,143.2 149.6,158.2 205.2,126.1 179.1,111.1 		"/>
		<polygon class="st4" points="180.5,152.9 160.2,141.1 202.8,116.5 223.1,128.3 		"/>
		<polygon class="st11" points="245.9,241.4 99.6,156.9 112.2,149.7 258.5,234.2 		"/>
		<g>
			<polygon class="st4" points="147.4,229.1 129.2,218.6 171.8,194 190,204.6 			"/>
			<polygon class="st5" points="129.2,218.6 129.2,246.1 147.4,256.6 147.4,229.1 			"/>
			<polygon class="st6" points="147.4,256.6 190,232 190,204.6 147.4,229.1 			"/>
		</g>
		<g>
			<polygon class="st6" points="223.1,128.3 180.5,152.9 180.5,171 223.1,146.4 			"/>
			<polygon class="st5" points="160.2,141.1 160.2,159.3 180.5,171 180.5,152.9 			"/>
			<g>
				<polygon class="st7" points="223.1,128.3 202.8,116.5 212.2,112.3 				"/>
				<polygon class="st8" points="180.5,152.9 160.2,141.1 169.6,136.9 				"/>
				<polygon class="st9" points="169.6,136.9 212.2,112.3 223.1,128.3 180.5,152.9 				"/>
				<polygon class="st10" points="202.8,116.5 212.2,112.3 169.6,136.9 160.2,141.1 				"/>
			</g>
		</g>
		<g>
			<polygon class="st4" points="210.7,162.5 190.4,150.7 233,126.1 253.4,137.9 			"/>
			<polygon class="st5" points="190.4,150.7 190.4,176.7 210.7,188.4 210.7,162.5 			"/>
			<polygon class="st6" points="253.4,137.9 210.7,162.5 210.7,188.4 253.4,163.8 			"/>
		</g>
		<g>
			<polygon class="st4" points="239.1,159.3 218.8,147.5 261.4,122.9 281.7,134.7 			"/>
			<polygon class="st5" points="218.8,147.5 218.8,193.1 239.1,204.9 239.1,159.3 			"/>
			<polygon class="st6" points="239.1,159.3 281.7,134.7 281.7,180.3 239.1,204.9 			"/>
		</g>
		<g>
			<polygon class="st4" points="296.3,185.6 274.4,173 295.9,160.6 317.8,173.2 			"/>
			<polygon class="st5" points="274.4,173 274.4,196.7 296.3,209.3 296.3,185.6 			"/>
			<polygon class="st6" points="317.8,173.2 296.3,185.6 296.3,209.3 317.8,196.9 			"/>
		</g>
		<polygon class="st13" points="32.8,201.7 32.8,195.5 179.1,280 179.1,286.2 		"/>
		<polygon class="st13" points="325.4,195.5 179.1,280 179.1,286.2 325.4,201.7 		"/>
		<polygon class="st12" points="150.6,263.6 203.8,232.8 232.3,249.3 179.1,280 		"/>
		<path class="st41" d="M269.8,227.6l55.6-32.1l-7.6-4.4v-17.9l-21.8-12.6l-14.2,8.2v-34.1l-20.4-11.8l-17,9.8l-11.4-6.6l-9.8,5.7
			l-32.8,18.9l0,14.6l-9.8,5.7l-20.4-11.8v-4.6l-8.4,4.8l0,0l8.4-4.8v-13.6l35.5-20.5l-16.5-9.5l-79,45.6v-7.5l-28.8-16.6
			l-30.6,17.7v40.7l-8,4.6L179.1,280l88.6-51.1h0L269.8,227.6l-28.5-16.5L269.8,227.6z M81.2,214.5l-7.8,4.5L81.2,214.5L81.2,214.5z
			 M120.7,246.3L120.7,246.3l8.5-4.9L120.7,246.3z M123.9,189.9l2.8-1.6h0L123.9,189.9L123.9,189.9z M149.6,158.2l-26.1-15.1h0
			L149.6,158.2L149.6,158.2z M179.4,175.5l-20.2-11.7L179.4,175.5L179.4,175.5z M190.4,171.7l-8.7,5l27.7,16l0,0l-27.7-16
			L190.4,171.7z M232.3,249.3l2.2-1.3L190,222.3l44.5,25.7L232.3,249.3z M211.5,193.9l7.3-4.2v0L211.5,193.9l27.7,16L211.5,193.9z"
			/>
	</g>
</g>
</svg>
